<svg width="35" height="38" viewBox="0 0 35 38" fill="none" xmlns="http://www.w3.org/2000/svg">
<g clip-path="url(#clip0_1298_2839)">
<path d="M31.7188 0.890762H3.28125C2.63602 0.883633 2.01454 1.1547 1.55318 1.64448C1.09181 2.13426 0.828245 2.80275 0.820312 3.50326V34.503C0.82968 35.2024 1.09388 35.8694 1.55509 36.3579C2.01629 36.8464 2.63696 37.1167 3.28125 37.1095H31.7188C32.364 37.1151 32.9851 36.8431 33.4462 36.353C33.9073 35.8629 34.171 35.1946 34.1797 34.494V3.49436C34.1682 2.79589 33.9032 2.13059 33.4424 1.64306C32.9816 1.15553 32.3622 0.885174 31.7188 0.890762Z" fill="white"/>
<path d="M5.7585 14.4668H10.7104V31.7657H5.7585V14.4668ZM8.23584 5.85742C8.80381 5.85742 9.35901 6.04032 9.83122 6.38297C10.3034 6.72562 10.6714 7.21264 10.8886 7.7824C11.1059 8.35216 11.1626 8.97908 11.0516 9.58383C10.9406 10.1886 10.6668 10.744 10.265 11.1798C9.86324 11.6157 9.3514 11.9123 8.79429 12.0323C8.23717 12.1522 7.6598 12.09 7.13523 11.8537C6.61065 11.6173 6.16243 11.2173 5.84728 10.7043C5.53213 10.1913 5.36421 9.58829 5.36475 8.97164C5.36547 8.14543 5.66828 7.35332 6.20664 6.76938C6.74499 6.18543 7.47485 5.85742 8.23584 5.85742ZM13.8167 14.4668H18.5636V16.8418H18.6292C19.2909 15.4821 20.9042 14.0482 23.3132 14.0482C28.328 14.0363 29.2577 17.6196 29.2577 22.2657V31.7657H24.3058V23.3493C24.3058 21.3454 24.273 18.7655 21.7327 18.7655C19.1925 18.7655 18.7605 20.9505 18.7605 23.2187V31.7657H13.8167V14.4668Z" fill="black"/>
</g>
<defs>
<clipPath id="clip0_1298_2839">
<rect width="35" height="38" rx="8" fill="white"/>
</clipPath>
</defs>
</svg>
