<svg width="91" height="108" viewBox="0 0 91 108" fill="none" xmlns="http://www.w3.org/2000/svg">
<path d="M13.9951 28.314C19.3148 21.4695 27.3645 18 37.9167 18H41.7084V30.6855L38.6599 31.41C33.4653 32.643 29.8519 35.0685 27.9181 38.628C26.9091 40.5456 26.3369 42.7412 26.2574 45H37.9167C38.9224 45 39.8868 45.4741 40.5979 46.318C41.3089 47.1619 41.7084 48.3065 41.7084 49.5V81C41.7084 85.9635 38.3073 90 34.1251 90H11.3751C10.3695 90 9.40504 89.5259 8.69396 88.682C7.98289 87.8381 7.58341 86.6935 7.58341 85.5V63L7.59479 49.8645C7.56066 49.365 6.84025 37.53 13.9951 28.314ZM75.8334 90H53.0834C52.0778 90 51.1134 89.5259 50.4023 88.682C49.6912 87.8381 49.2917 86.6935 49.2917 85.5V63L49.3031 49.8645C49.269 49.365 48.5486 37.53 55.7035 28.314C61.0232 21.4695 69.0729 18 79.6251 18H83.4167V30.6855L80.3682 31.41C75.1737 32.643 71.5602 35.0685 69.6265 38.628C68.6175 40.5456 68.0452 42.7412 67.9657 45H79.6251C80.6307 45 81.5951 45.4741 82.3062 46.318C83.0173 47.1619 83.4167 48.3065 83.4167 49.5V81C83.4167 85.9635 80.0156 90 75.8334 90Z" fill="#AEAEAE" fill-opacity="0.34"/>
</svg>
