<svg width="150" height="143" viewBox="0 0 150 143" fill="none" xmlns="http://www.w3.org/2000/svg">
<path d="M12.5 142.132C12.5 142.132 0 142.132 0 130.287C0 118.443 12.5 82.9102 75 82.9102C137.5 82.9102 150 118.443 150 130.287C150 142.132 137.5 142.132 137.5 142.132H12.5ZM75 71.0659C84.9456 71.0659 94.4839 67.3222 101.517 60.6585C108.549 53.9948 112.5 44.9569 112.5 35.5329C112.5 26.109 108.549 17.0711 101.517 10.4074C94.4839 3.74364 84.9456 0 75 0C65.0544 0 55.5161 3.74364 48.4835 10.4074C41.4509 17.0711 37.5 26.109 37.5 35.5329C37.5 44.9569 41.4509 53.9948 48.4835 60.6585C55.5161 67.3222 65.0544 71.0659 75 71.0659Z" fill="#B0B0B0"/>
</svg>
