<svg width="30" height="30" viewBox="0 0 30 30" fill="none" xmlns="http://www.w3.org/2000/svg">
<rect x="0.5" y="0.5" width="29" height="29" rx="14.5" fill="white"/>
<rect x="0.5" y="0.5" width="29" height="29" rx="14.5" stroke="#0BDE46"/>
<path d="M21.9997 16.1643H16.1663V21.9977C16.1663 22.3071 16.0434 22.6038 15.8246 22.8226C15.6058 23.0414 15.3091 23.1643 14.9997 23.1643C14.6903 23.1643 14.3935 23.0414 14.1747 22.8226C13.9559 22.6038 13.833 22.3071 13.833 21.9977V16.1643H7.99967C7.69026 16.1643 7.39351 16.0414 7.17472 15.8226C6.95592 15.6038 6.83301 15.3071 6.83301 14.9977C6.83301 14.6882 6.95592 14.3915 7.17472 14.1727C7.39351 13.9539 7.69026 13.831 7.99967 13.831H13.833V7.99767C13.833 7.68825 13.9559 7.3915 14.1747 7.17271C14.3935 6.95392 14.6903 6.831 14.9997 6.831C15.3091 6.831 15.6058 6.95392 15.8246 7.17271C16.0434 7.3915 16.1663 7.68825 16.1663 7.99767V13.831H21.9997C22.3091 13.831 22.6058 13.9539 22.8246 14.1727C23.0434 14.3915 23.1663 14.6882 23.1663 14.9977C23.1663 15.3071 23.0434 15.6038 22.8246 15.8226C22.6058 16.0414 22.3091 16.1643 21.9997 16.1643Z" fill="#0BDE46"/>
</svg>
