<svg width="50" height="50" viewBox="0 0 50 50" fill="none" xmlns="http://www.w3.org/2000/svg">
<rect width="50" height="50" rx="25" fill="black"/>
<path d="M36.8531 23.4375H7.8125C7.3981 23.4375 7.00067 23.6021 6.70765 23.8952C6.41462 24.1882 6.25 24.5856 6.25 25C6.25 25.4144 6.41462 25.8118 6.70765 26.1049C7.00067 26.3979 7.3981 26.5625 7.8125 26.5625H36.8531L25.4562 37.9563C25.1629 38.2497 24.998 38.6476 24.998 39.0625C24.998 39.4774 25.1629 39.8754 25.4562 40.1688C25.7496 40.4622 26.1476 40.627 26.5625 40.627C26.9774 40.627 27.3754 40.4622 27.6688 40.1688L41.7313 26.1063C41.8768 25.9611 41.9922 25.7887 42.071 25.5989C42.1497 25.409 42.1903 25.2055 42.1903 25C42.1903 24.7945 42.1497 24.591 42.071 24.4012C41.9922 24.2113 41.8768 24.0389 41.7313 23.8938L27.6688 9.83127C27.3754 9.53787 26.9774 9.37305 26.5625 9.37305C26.1476 9.37305 25.7496 9.53787 25.4562 9.83127C25.1629 10.1247 24.998 10.5226 24.998 10.9375C24.998 11.3524 25.1629 11.7504 25.4562 12.0438L36.8531 23.4375Z" fill="white"/>
</svg>
