<svg width="50" height="50" viewBox="0 0 50 50" fill="none" xmlns="http://www.w3.org/2000/svg">
<path d="M35.869 37.1225C35.3064 37.6851 34.5434 38.0011 33.7477 38.0011C32.9521 38.0011 32.1891 37.6851 31.6265 37.1225L24.999 29.5475L18.3715 37.12C18.0938 37.4023 17.7629 37.6268 17.3979 37.7806C17.033 37.9344 16.6412 38.0144 16.2452 38.016C15.8492 38.0176 15.4567 37.9408 15.0906 37.79C14.7244 37.6392 14.3917 37.4174 14.1116 37.1374C13.8316 36.8573 13.6098 36.5246 13.459 36.1584C13.3082 35.7923 13.2314 35.3998 13.233 35.0038C13.2346 34.6078 13.3146 34.216 13.4684 33.8511C13.6222 33.4861 13.8467 33.1552 14.129 32.8775L21.024 25.0025L14.1265 17.1225C13.8442 16.8448 13.6197 16.5139 13.4659 16.1489C13.3121 15.784 13.2321 15.3922 13.2305 14.9962C13.2289 14.6002 13.3057 14.2078 13.4565 13.8416C13.6073 13.4754 13.8291 13.1427 14.1091 12.8627C14.3892 12.5826 14.7219 12.3608 15.0881 12.21C15.4542 12.0592 15.8467 11.9824 16.2427 11.984C16.6387 11.9856 17.0305 12.0656 17.3954 12.2194C17.7604 12.3732 18.0913 12.5977 18.369 12.88L24.999 20.4575L31.6265 12.88C31.9042 12.5977 32.2351 12.3732 32.6001 12.2194C32.965 12.0656 33.3568 11.9856 33.7528 11.984C34.1488 11.9824 34.5412 12.0592 34.9074 12.21C35.2736 12.3608 35.6063 12.5826 35.8863 12.8627C36.1664 13.1427 36.3882 13.4754 36.539 13.8416C36.6898 14.2078 36.7666 14.6002 36.765 14.9962C36.7634 15.3922 36.6834 15.784 36.5296 16.1489C36.3758 16.5139 36.1513 16.8448 35.869 17.1225L28.974 25.0025L35.869 32.8775C36.1479 33.1561 36.3692 33.487 36.5202 33.8512C36.6711 34.2154 36.7489 34.6058 36.7489 35C36.7489 35.3943 36.6711 35.7846 36.5202 36.1488C36.3692 36.513 36.1479 36.8439 35.869 37.1225Z" fill="black"/>
</svg>
