<svg width="35" height="38" viewBox="0 0 35 38" fill="none" xmlns="http://www.w3.org/2000/svg">
<path fill-rule="evenodd" clip-rule="evenodd" d="M27 0C31.4183 0 35 3.58172 35 8V30C35 34.4183 31.4183 38 27 38H8C3.58172 38 0 34.4183 0 30V8C0 3.58172 3.58172 0 8 0H27ZM18.3729 36.8279C18.3679 36.8251 18.3619 36.8257 18.3563 36.8268C18.3513 36.8278 18.3465 36.8296 18.3419 36.832L18.2543 36.8789C18.2483 36.8821 18.2418 36.8845 18.2351 36.8859L18.2314 36.8868C18.2213 36.8889 18.2109 36.8885 18.2011 36.8854C18.1974 36.8843 18.1939 36.8829 18.1906 36.8811L18.0921 36.8283C18.0808 36.8235 18.0705 36.8252 18.063 36.8305C18.0585 36.8337 18.0561 36.8389 18.0542 36.844C18.0523 36.8493 18.0511 36.855 18.0509 36.8607L18.0269 37.5167C18.0266 37.5254 18.0274 37.534 18.0294 37.5424L18.0305 37.5474C18.0327 37.5567 18.0366 37.5654 18.0421 37.5731C18.0462 37.579 18.0512 37.5842 18.0569 37.5886L18.1933 37.694C18.1977 37.6974 18.2027 37.7 18.2081 37.7015L18.2098 37.702C18.2176 37.7043 18.226 37.704 18.2337 37.7012C18.2375 37.6999 18.241 37.6979 18.2442 37.6955L18.3803 37.5903C18.3874 37.5848 18.3936 37.5782 18.3987 37.5709L18.399 37.5705C18.4053 37.5614 18.4098 37.5511 18.4121 37.5402C18.4136 37.5333 18.4142 37.5262 18.414 37.5191L18.39 36.8659C18.3897 36.8578 18.3894 36.8494 18.3858 36.842C18.3826 36.8357 18.3781 36.8308 18.3729 36.8279ZM18.7607 36.65C18.7549 36.6465 18.7478 36.6468 18.7412 36.6479C18.7353 36.6489 18.7296 36.6509 18.7244 36.6537L18.4699 36.7926C18.465 36.7953 18.4606 36.7988 18.4568 36.8029L18.4557 36.8041C18.4506 36.8096 18.447 36.8163 18.4451 36.8236C18.4441 36.8278 18.4436 36.8321 18.4438 36.8364L18.4695 37.5022C18.4697 37.5078 18.4708 37.5135 18.4729 37.5188L18.4736 37.5207C18.4759 37.5266 18.4795 37.532 18.4841 37.5364C18.4872 37.5394 18.4907 37.5418 18.4944 37.5437L18.7819 37.6881C18.7947 37.6927 18.8068 37.6906 18.8157 37.6841C18.8222 37.6794 18.8252 37.6714 18.8273 37.6637C18.8291 37.6568 18.8298 37.6496 18.8295 37.6425L18.7812 36.6962C18.7807 36.6861 18.7799 36.6759 18.7755 36.6669C18.7718 36.6594 18.7668 36.6536 18.7607 36.65ZM17.7085 36.6494C17.7019 36.6461 17.6945 36.6453 17.6874 36.647C17.6838 36.6479 17.6805 36.6493 17.6774 36.6513C17.6712 36.6554 17.6678 36.6624 17.665 36.6694C17.662 36.6771 17.6602 36.6853 17.6598 36.6937L17.6108 37.6533C17.6108 37.6665 17.6158 37.6767 17.6238 37.6838C17.6306 37.6899 17.6404 37.6906 17.6495 37.6892C17.6548 37.6885 17.6599 37.6869 17.6647 37.6845L17.9452 37.5436C17.9488 37.5418 17.9522 37.5395 17.9552 37.5368L17.9561 37.536C17.9621 37.5309 17.9665 37.5242 17.969 37.5168C17.9704 37.5128 17.9711 37.5086 17.9713 37.5044L17.9956 36.8364C17.9958 36.8321 17.9953 36.8278 17.9944 36.8236C17.9925 36.8153 17.9884 36.8076 17.9826 36.8013L17.9825 36.8012C17.9788 36.7971 17.9744 36.7937 17.9696 36.7911L17.7085 36.6494Z" fill="white"/>
<path fill-rule="evenodd" clip-rule="evenodd" d="M21.8796 6.3335C22.9646 6.3335 24.1108 6.74516 25.1608 7.19958L25.9294 7.54158C27.7669 8.37758 28.7994 10.1319 29.6 12.0588C30.8994 15.1859 31.8021 19.3548 32.1142 22.5247C32.2629 24.0288 32.2994 25.5425 32.0325 26.5606C31.7452 27.6483 30.7681 28.4178 29.8188 29.0227L29.3492 29.3124L28.8621 29.6069C28.6113 29.7589 28.3531 29.9093 28.0965 30.0566L27.3352 30.4841L26.2896 31.0493L25.4481 31.499C25.2762 31.5996 25.0875 31.6618 24.893 31.6817C24.6986 31.7016 24.5024 31.679 24.3162 31.615C24.13 31.5511 23.9575 31.4472 23.809 31.3095C23.6605 31.1718 23.5389 31.0031 23.4516 30.8135C23.3642 30.6238 23.3129 30.417 23.3005 30.2054C23.2882 29.9938 23.3151 29.7816 23.3797 29.5815C23.4444 29.3814 23.5453 29.1975 23.6767 29.0405C23.808 28.8836 23.9671 28.7569 24.1444 28.668L25.2965 28.0505L24.4506 27.0862C22.4236 27.9887 20.0363 28.5002 17.5002 28.5002C14.9642 28.5002 12.5769 27.9903 10.5498 27.0862L9.70397 28.0489L10.8604 28.6664C11.0318 28.7594 11.1847 28.888 11.3103 29.0451C11.4359 29.2022 11.5318 29.3846 11.5924 29.5819C11.6531 29.7792 11.6774 29.9876 11.6639 30.1951C11.6504 30.4026 11.5994 30.6052 11.5138 30.7912C11.4282 30.9773 11.3096 31.1433 11.165 31.2797C11.0203 31.416 10.8523 31.5201 10.6705 31.586C10.3035 31.719 9.90284 31.6883 9.55668 31.5006L8.76335 31.0731C8.1771 30.7564 7.58939 30.4429 7.00897 30.112L5.65564 29.3124L5.18752 29.0227C4.23814 28.4178 3.2596 27.6483 2.97377 26.5606C2.70543 25.5425 2.74335 24.0304 2.89064 22.5231C3.20272 19.3548 4.10543 15.1859 5.40481 12.0588C6.20543 10.1319 7.23793 8.37758 9.07543 7.54158C10.2946 6.98741 11.7719 6.3335 13.1252 6.3335C14.0046 6.3335 14.6958 7.21225 14.569 8.14958C15.5394 7.99368 16.5192 7.91589 17.5002 7.91683C18.5079 7.91683 19.4923 7.996 20.4373 8.15116C20.4092 7.92631 20.4254 7.69754 20.4848 7.48C20.5443 7.26246 20.6456 7.0611 20.7821 6.88926C20.9186 6.71742 21.0871 6.57902 21.2766 6.48321C21.466 6.3874 21.6706 6.33637 21.8796 6.3335ZM12.7606 16.6252C12.0838 16.6252 11.4347 16.9171 10.956 17.4367C10.4774 17.9564 10.2086 18.6611 10.2086 19.396C10.2086 20.1309 10.4774 20.8356 10.956 21.3553C11.4347 21.8749 12.0838 22.1668 12.7606 22.1668C13.4375 22.1668 14.0866 21.8749 14.5652 21.3553C15.0438 20.8356 15.3127 20.1309 15.3127 19.396C15.3127 18.6611 15.0438 17.9564 14.5652 17.4367C14.0866 16.9171 13.4375 16.6252 12.7606 16.6252ZM22.2398 16.6252C21.563 16.6252 20.9138 16.9171 20.4352 17.4367C19.9566 17.9564 19.6877 18.6611 19.6877 19.396C19.6877 20.1309 19.9566 20.8356 20.4352 21.3553C20.9138 21.8749 21.563 22.1668 22.2398 22.1668C22.9167 22.1668 23.5658 21.8749 24.0444 21.3553C24.523 20.8356 24.7919 20.1309 24.7919 19.396C24.7919 18.6611 24.523 17.9564 24.0444 17.4367C23.5658 16.9171 22.9167 16.6252 22.2398 16.6252Z" fill="black"/>
</svg>
