<svg width="32" height="32" viewBox="0 0 32 32" fill="none" xmlns="http://www.w3.org/2000/svg">
<rect width="32" height="32" rx="16" fill="black"/>
<path d="M8.26667 6C7.66551 6 7.08897 6.23261 6.66389 6.64665C6.23881 7.06069 6 7.62225 6 8.20779C6 8.79334 6.23881 9.3549 6.66389 9.76894C7.08897 10.183 7.66551 10.4156 8.26667 10.4156C8.86782 10.4156 9.44436 10.183 9.86944 9.76894C10.2945 9.3549 10.5333 8.79334 10.5333 8.20779C10.5333 7.62225 10.2945 7.06069 9.86944 6.64665C9.44436 6.23261 8.86782 6 8.26667 6ZM6.13333 12.2338C6.09797 12.2338 6.06406 12.2474 6.03905 12.2718C6.01405 12.2962 6 12.3292 6 12.3636V25.8701C6 25.9418 6.05973 26 6.13333 26H10.4C10.4354 26 10.4693 25.9863 10.4943 25.962C10.5193 25.9376 10.5333 25.9046 10.5333 25.8701V12.3636C10.5333 12.3292 10.5193 12.2962 10.4943 12.2718C10.4693 12.2474 10.4354 12.2338 10.4 12.2338H6.13333ZM13.0667 12.2338C13.0313 12.2338 12.9974 12.2474 12.9724 12.2718C12.9474 12.2962 12.9333 12.3292 12.9333 12.3636V25.8701C12.9333 25.9418 12.9931 26 13.0667 26H17.3333C17.3687 26 17.4026 25.9863 17.4276 25.962C17.4526 25.9376 17.4667 25.9046 17.4667 25.8701V18.5974C17.4667 18.0807 17.6774 17.5853 18.0525 17.2199C18.4275 16.8546 18.9362 16.6494 19.4667 16.6494C19.9971 16.6494 20.5058 16.8546 20.8809 17.2199C21.256 17.5853 21.4667 18.0807 21.4667 18.5974V25.8701C21.4667 25.9418 21.5264 26 21.6 26H25.8667C25.902 26 25.9359 25.9863 25.9609 25.962C25.986 25.9376 26 25.9046 26 25.8701V16.9143C26 14.3927 23.7493 12.4208 21.1733 12.6483C20.3763 12.719 19.5956 12.9111 18.8597 13.2177L17.4667 13.7995V12.3636C17.4667 12.3292 17.4526 12.2962 17.4276 12.2718C17.4026 12.2474 17.3687 12.2338 17.3333 12.2338H13.0667Z" fill="white"/>
</svg>
